<svg width="110" height="110" viewBox="0 0 110 110" fill="none" xmlns="http://www.w3.org/2000/svg">
<circle cx="55" cy="55" r="55" fill="white"/>
<mask id="mask0_8501_17" style="mask-type:luminance" maskUnits="userSpaceOnUse" x="40" y="40" width="30" height="30">
<path fill-rule="evenodd" clip-rule="evenodd" d="M55 40H70V70H55H40V40H55Z" fill="white"/>
</mask>
<g mask="url(#mask0_8501_17)">
<path fill-rule="evenodd" clip-rule="evenodd" d="M67.3178 54.9984C67.3024 54.9983 67.287 54.9981 67.2716 54.998C67.2716 53.7486 67.296 52.4986 67.2645 51.25C67.2348 50.0721 67.1906 48.8913 67.071 47.72C66.9567 46.5996 66.5619 45.5671 65.8056 44.6963C64.7475 43.4779 63.351 42.9645 61.8047 42.8702C60.045 42.7628 58.2793 42.7364 56.5157 42.7148C54.7607 42.6935 53.0047 42.7006 51.2499 42.7358C50.0721 42.7594 48.8912 42.8094 47.72 42.929C46.5996 43.0433 45.5671 43.4381 44.6962 44.1944C43.4778 45.2525 42.9645 46.649 42.8702 48.1953C42.7628 49.955 42.7363 51.7207 42.7148 53.4843C42.6934 55.2393 42.7006 56.9953 42.7358 58.7501C42.7594 59.9279 42.8094 61.1088 42.929 62.28C43.0433 63.4004 43.438 64.4329 44.1944 65.3038C45.2525 66.5221 46.649 67.0355 48.1953 67.1298C49.955 67.2372 51.7207 67.2636 53.4843 67.2852C55.2393 67.3065 56.9956 67.3071 58.7499 67.262C60.0455 67.2287 61.3539 67.2039 62.6297 67.0037C64.8099 66.6614 66.2853 65.3972 66.8723 63.2332C67.0625 62.532 67.1621 61.7909 67.1891 61.0638C67.2641 59.0432 67.2791 57.0204 67.3178 54.9984ZM40 59.9405C40 56.6468 40 53.3532 40 50.0595C40.0165 49.9659 40.045 49.8726 40.0478 49.7786C40.0823 48.6191 40.1345 47.4617 40.4187 46.3295C41.0597 43.7751 42.5411 41.9165 44.9773 40.8631C46.2984 40.2918 47.7021 40.1258 49.1247 40.0677C49.4367 40.0549 49.748 40.023 50.0595 40H59.9405C60.0341 40.0166 60.1274 40.0451 60.2214 40.0478C61.3808 40.0824 62.5383 40.1345 63.6705 40.4187C66.2249 41.0598 68.0834 42.5411 69.137 44.9774C69.7082 46.2984 69.8738 47.7023 69.9323 49.1247C69.9451 49.4367 69.9769 49.748 70 50.0595V59.9405C69.9834 60.0341 69.9549 60.1274 69.9521 60.2215C69.9178 61.3809 69.8653 62.5383 69.5813 63.6705C68.9403 66.2249 67.4589 68.0834 65.0226 69.137C63.7016 69.7082 62.2977 69.8738 60.8752 69.9323C60.5632 69.9452 60.252 69.977 59.9405 70H50.0595C49.9659 69.9834 49.8726 69.9549 49.7785 69.9522C48.6191 69.9178 47.4617 69.8654 46.3295 69.5813C43.7751 68.9403 41.9165 67.4589 40.863 65.0227C40.2918 63.7016 40.1258 62.2979 40.0677 60.8752C40.0549 60.5633 40.023 60.252 40 59.9405Z" fill="#E43071"/>
</g>
<path fill-rule="evenodd" clip-rule="evenodd" d="M54.9958 59.9901C57.726 59.9902 59.9874 57.7561 59.99 55.0563C59.9927 52.2751 57.7768 50.0121 55.0487 50.0101C52.2573 50.0079 50.0103 52.228 50.0099 54.9884C50.0096 57.7486 52.2438 59.99 54.9958 59.9901ZM62.7087 55.0066C62.7071 59.2719 59.2516 62.7149 54.9786 62.7088C50.7294 62.7026 47.2883 59.249 47.2913 54.9935C47.2943 50.7268 50.7492 47.2843 55.0213 47.2914C59.2716 47.2984 62.7102 50.7494 62.7087 55.0066Z" fill="#E43071"/>
<path fill-rule="evenodd" clip-rule="evenodd" d="M62.9906 45.1884C63.998 45.1838 64.8093 45.9861 64.8116 46.9891C64.8139 47.9918 64.0049 48.8051 63.0031 48.8072C62.0106 48.8091 61.189 47.9834 61.1928 46.9875C61.1965 46.0021 62.0052 45.1928 62.9906 45.1884Z" fill="#E43071"/>
</svg>
