<svg width="23" height="22" viewBox="0 0 23 22" fill="none" xmlns="http://www.w3.org/2000/svg">
<path d="M2.60661 0.393461C2.21611 0.00296092 1.58291 0.00296092 1.19241 0.393461C0.801911 0.783961 0.801911 1.41716 1.19241 1.80766L2.60661 0.393461ZM20.9914 21.6067C21.3819 21.9972 22.0151 21.9972 22.4056 21.6067C22.7961 21.2162 22.7961 20.583 22.4056 20.1925L20.9914 21.6067ZM1.19241 20.1925C0.801911 20.583 0.801911 21.2162 1.19241 21.6067C1.58291 21.9972 2.21611 21.9972 2.60661 21.6067L1.19241 20.1925ZM22.4056 1.80766C22.7961 1.41716 22.7961 0.783961 22.4056 0.393461C22.0151 0.00296092 21.3819 0.00296092 20.9914 0.393461L22.4056 1.80766ZM1.19241 1.80766L20.9914 21.6067L22.4056 20.1925L2.60661 0.393461L1.19241 1.80766ZM2.60661 21.6067L22.4056 1.80766L20.9914 0.393461L1.19241 20.1925L2.60661 21.6067Z" fill="white"/>
</svg>
