<svg width="110" height="110" viewBox="0 0 110 110" fill="none" xmlns="http://www.w3.org/2000/svg">
<circle cx="55" cy="55" r="55" fill="white"/>
<path fill-rule="evenodd" clip-rule="evenodd" d="M62.1904 51.3939H60.6105V50.4723C60.0115 51.164 59.5038 51.5134 58.9503 51.5134C58.4647 51.5134 58.1275 51.2826 57.9586 50.8655C57.856 50.612 57.7832 50.2161 57.7832 49.6346V42.9323H59.3632V49.2157V49.8021C59.4 50.0373 59.4991 50.1232 59.7 50.1232C60.0024 50.1232 60.276 49.8584 60.6105 49.3832V42.9323H62.1904V51.3939Z" fill="#E43071"/>
<path fill-rule="evenodd" clip-rule="evenodd" d="M55.0391 48.8804C55.1222 49.7182 54.8643 50.1339 54.3737 50.1339C53.8832 50.1339 53.6255 49.7182 53.7086 48.8804V45.5293C53.6255 44.6915 53.8832 44.2988 54.3739 44.2988C54.8645 44.2988 55.1231 44.6915 55.0399 45.5293L55.0391 48.8804ZM56.619 45.6968C56.619 44.7925 56.4388 44.1136 56.1201 43.6862C55.6992 43.1074 55.0391 42.8705 54.3739 42.8705C53.6209 42.8705 53.0479 43.1074 52.6276 43.6862C52.3039 44.1136 52.1302 44.7999 52.1302 45.7042L52.1287 48.7129C52.1287 49.612 52.2831 50.2333 52.6069 50.6566C53.0272 51.2336 53.7086 51.5392 54.3739 51.5392C55.0391 51.5392 55.7325 51.2336 56.1534 50.6566C56.472 50.2333 56.619 49.612 56.619 48.7129V45.6968Z" fill="#E43071"/>
<mask id="mask0_8501_18" style="mask-type:luminance" maskUnits="userSpaceOnUse" x="46" y="40" width="7" height="12">
<path fill-rule="evenodd" clip-rule="evenodd" d="M52.4613 40.0837H46.6404V51.3939H52.4613V40.0837Z" fill="white"/>
</mask>
<g mask="url(#mask0_8501_18)">
<path fill-rule="evenodd" clip-rule="evenodd" d="M50.3824 46.786V51.3939H48.7193V46.786C48.7193 46.786 46.9959 41.1368 46.6404 40.0837H48.3867L49.5538 44.4968L50.715 40.0837H52.4613L50.3824 46.786Z" fill="#E43071"/>
</g>
<path fill-rule="evenodd" clip-rule="evenodd" d="M56.9686 59.5422C56.7208 59.5422 56.4368 59.674 56.1851 59.9244L56.1834 65.0052C56.4351 65.2588 56.7208 65.3873 56.9686 65.3873C57.4027 65.3873 57.5987 65.0663 57.5987 64.2285V60.626C57.5987 59.7882 57.4027 59.5422 56.9686 59.5422Z" fill="#E43071"/>
<path fill-rule="evenodd" clip-rule="evenodd" d="M63.1701 60.5493C63.1701 59.7749 62.9715 59.5422 62.4724 59.5422C61.9695 59.5422 61.7565 59.7558 61.7565 60.5388V61.4654L63.1701 61.4639V60.5493Z" fill="#E43071"/>
<mask id="mask1_8501_18" style="mask-type:luminance" maskUnits="userSpaceOnUse" x="42" y="52" width="25" height="18">
<path fill-rule="evenodd" clip-rule="evenodd" d="M42 69.9993H66.8309V52.483H42V69.9993Z" fill="white"/>
</mask>
<g mask="url(#mask1_8501_18)">
<path fill-rule="evenodd" clip-rule="evenodd" d="M62.4864 65.3873C62.857 65.3873 63.073 65.1842 63.1589 64.7788C63.1729 64.6961 63.1702 64.3344 63.1702 63.7258H64.7501V63.9632C64.7501 64.452 64.7101 64.7979 64.6966 64.9497C64.6458 65.286 64.5276 65.5902 64.3445 65.8586C63.9281 66.4665 63.3103 66.7661 62.5237 66.7661C61.7362 66.7661 61.1368 66.4806 60.7014 65.9085C60.3816 65.4896 60.1766 64.8668 60.1766 63.9772V61.0449C60.1766 60.1501 60.3632 59.4585 60.683 59.035C61.1184 58.4621 61.7178 58.1589 62.4864 58.1589C63.2416 58.1589 63.841 58.4621 64.263 59.035C64.5777 59.4585 64.7527 60.1129 64.7527 61.0078L64.753 62.7205H61.7565V64.225C61.7513 64.9981 61.9696 65.3873 62.4864 65.3873ZM59.1787 64.1447C59.1787 64.919 59.1129 65.4654 59.0124 65.8203C58.8115 66.4428 58.3734 66.7661 57.774 66.7661C57.2387 66.7661 56.6902 66.4416 56.1872 65.8146L56.1851 66.6581H54.6883V55.4317H56.1851L56.1834 59.0918C56.6697 58.489 57.2201 58.1458 57.774 58.1458C58.3734 58.1458 58.7764 58.4947 58.9773 59.1217C59.0778 59.4585 59.1787 60.0006 59.1787 60.7936V64.1447ZM53.441 66.6581H51.861V65.7365C51.2621 66.4282 50.7543 66.7775 50.2008 66.7775C49.7152 66.7775 49.3779 66.5467 49.2091 66.1297C49.1065 65.8762 49.0338 65.4802 49.0338 64.8987V58.2802H50.6137V64.4798V65.0663C50.6506 65.3014 50.7497 65.3873 50.9506 65.3873C51.2529 65.3873 51.5266 65.1226 51.861 64.6474V58.2802H53.441V66.6581ZM47.4538 66.6581H45.7907V57.0235H44.0445V55.4335L49.2832 55.4317V57.0235H47.4538V66.6581ZM66.5829 56.2618C66.5829 56.2618 66.3403 54.5456 65.5958 53.7897C64.6516 52.7979 63.5931 52.7929 63.1078 52.735C59.6331 52.483 54.421 52.483 54.421 52.483H54.4101C54.4101 52.483 49.1977 52.483 45.7231 52.735C45.2376 52.7929 44.1796 52.7979 43.2351 53.7897C42.4906 54.5456 42.2483 56.2618 42.2483 56.2618C42.2483 56.2618 42 58.277 42 60.2925V62.1819C42 64.1972 42.2483 66.2125 42.2483 66.2125C42.2483 66.2125 42.4906 67.9287 43.2351 68.6844C44.1796 69.6765 45.4206 69.645 45.9731 69.7489C47.9596 69.9402 54.4155 69.9993 54.4155 69.9993C54.4155 69.9993 59.6331 69.9914 63.1078 69.7395C63.5931 69.6815 64.6516 69.6765 65.5958 68.6844C66.3403 67.9287 66.5829 66.2125 66.5829 66.2125C66.5829 66.2125 66.8309 64.1972 66.8309 62.1819V60.2925C66.8309 58.277 66.5829 56.2618 66.5829 56.2618Z" fill="#E43071"/>
</g>
</svg>
